<?xml version="1.0" standalone="no"?>
<!DOCTYPE svg PUBLIC "-//W3C//DTD SVG 20010904//EN"
 "http://www.w3.org/TR/2001/REC-SVG-20010904/DTD/svg10.dtd">
<svg version="1.0" xmlns="http://www.w3.org/2000/svg"
 width="100" height="70" viewBox="0 0 406.000000 156.000000"
 preserveAspectRatio="xMidYMid meet">

<g transform="translate(0.000000,156.000000) scale(0.100000,-0.100000)"
fill="#3C403D" stroke="none">
<path d="M1854 1499 c-255 -43 -445 -221 -515 -484 -32 -117 -32 -335 -1 -460
65 -261 214 -431 428 -490 90 -24 264 -30 351 -12 151 32 292 131 367 256 34
56 91 200 82 208 -6 6 -148 43 -167 43 -10 0 -20 -15 -28 -42 -39 -131 -131
-238 -238 -278 -71 -27 -189 -36 -263 -21 -238 49 -361 240 -362 556 0 209 47
349 149 446 84 79 191 119 322 119 173 -1 298 -82 362 -234 12 -31 25 -56 28
-56 19 1 163 39 168 44 10 10 -19 86 -57 148 -124 206 -358 302 -626 257z"/>
<path d="M40 775 l0 -715 530 0 530 0 0 85 0 85 -435 0 -435 0 0 245 0 245
395 0 395 0 0 85 0 85 -395 0 -395 0 0 215 0 215 420 0 420 0 0 85 0 85 -515
0 -515 0 0 -715z"/>
<path d="M3197 1483 c-3 -4 -124 -318 -270 -698 -146 -379 -268 -698 -272
-707 -7 -16 2 -18 92 -18 l100 0 80 223 81 222 295 3 295 2 35 -92 c20 -51 58
-151 86 -223 l49 -130 106 -3 c58 -1 106 -1 106 1 0 2 -130 322 -289 713
l-290 709 -100 3 c-54 1 -102 -1 -104 -5z m238 -543 c26 -69 60 -160 76 -202
l28 -78 -238 0 -239 0 93 248 c51 136 103 288 115 339 l23 92 47 -137 c26 -75
69 -193 95 -262z"/>
</g>
</svg>
